<?xml version="1.0" encoding="utf-8"?>
<!-- Generator: Adobe Illustrator 26.3.1, SVG Export Plug-In . SVG Version: 6.00 Build 0)  -->
<svg version="1.1" id="Layer_1" xmlns="http://www.w3.org/2000/svg" xmlns:xlink="http://www.w3.org/1999/xlink" x="0px" y="0px"
	  viewBox="0 0 806.4 140.4" style="enable-background:new 0 0 806.4 140.4;" xml:space="preserve">
<style type="text/css">
	.st0{fill:#71BF44;}
	.st1{fill:#0066B3;}
	.st2{fill:#FFC20C;}
	.st3{fill:#FDB812;}
	.st4{fill:#EF4122;}
	.st5{fill:#BCBEC0;}
</style>
<path class="st0" d="M23.9,132.5h85.9l-0.1-0.6C78,95.9,4.6,95.9,4.6,95.9v17.3C4.6,123.9,13.2,132.5,23.9,132.5"/>
<path class="st1" d="M131,105.1V28c0-10.6-8.6-19.3-19.3-19.3H23.9C13.2,8.8,4.6,17.4,4.6,28v58.7h71.7
	C76.3,86.7,116.1,86.7,131,105.1"/>
<path class="st2" d="M121,130.1c1.6-0.9,3-2,4.3-3.2c-3.6-3.4-21.7-20.1-38.1-27.4c-17.9-8-80-10.4-82.7-10.5l0,4.8
	c0.6,0,63.5,3.1,80.5,10.7C100.1,111.2,117.1,126.5,121,130.1"/>
<path class="st3" d="M49.8,53.1l4.3,0.7c-0.8,2.6-2.1,4.5-3.8,5.9c-1.7,1.4-3.7,2-5.9,2c-2.5,0-4.5-0.9-6-2.5
	c-1.4-1.7-2.2-4.2-2.2-7.4c0-2.6,0.5-5,1.4-7.2c1-2.2,2.3-3.9,4-5c1.7-1.1,3.6-1.7,5.6-1.7c2.2,0,4.1,0.7,5.4,2
	c1.4,1.3,2.2,3.1,2.5,5.5l-4.1,0.4c-0.2-1.3-0.7-2.3-1.3-2.9c-0.6-0.6-1.5-0.9-2.6-0.9c-1.2,0-2.3,0.4-3.3,1.2s-1.8,2.1-2.5,3.8
	c-0.6,1.7-0.9,3.4-0.9,5.1c0,1.9,0.4,3.3,1.2,4.3c0.8,1,1.8,1.5,3,1.5c1.1,0,2.1-0.4,3-1.2C48.6,55.9,49.3,54.7,49.8,53.1"/>
<polyline class="st4" points="64.7,61.4 60.4,61.4 64,42.2 58,42.2 58.7,38.3 74.9,38.3 74.3,42.2 68.3,42.2 64.7,61.4 "/>
<polyline class="st0" points="82.4,61.4 78.1,61.4 81.7,42.2 75.7,42.2 76.4,38.3 92.6,38.3 92,42.2 86,42.2 82.4,61.4 "/>
<polyline class="st5" points="91,61.4 95.3,38.3 99.5,38.3 95.2,61.4 91,61.4 "/>
<path d="M185.5,66.2c-1.9,1.5-2.9,3.5-2.9,6c0,2.4,1,4.4,3,5.9c1.9,1.4,4.4,2.1,7.4,2.1c2.9,0,5.3-0.7,7.1-2.2
	c1.9-1.5,2.9-3.4,2.9-5.9c0-2.5-1-4.5-3-6c-1.9-1.4-4.3-2-7.2-2C189.8,64.2,187.3,64.8,185.5,66.2 M180.6,14.5h25.6v7.3h-25.6V14.5z
	 M204,43.9c-4.2-1.1-7.8-2.8-10.9-5.1c-2.9,2.2-6.6,4-11.1,5.2c-3.4,1-7.8,1.8-13.1,2.5l-4.1-7c3.8,0,7.4-0.3,10.7-1
	c2.8-0.5,5.3-1.2,7.6-2.2c1.8-0.8,3.3-1.6,4.4-2.5c1-0.7,1.5-1.3,1.5-1.6c0-0.4-0.1-0.7-0.2-0.9c-0.1-0.2-0.3-0.2-0.6-0.2h-18.9v-7
	h47.4v7h-18.3c-0.5,0-0.8,0.1-0.9,0.2c-0.1,0.1-0.2,0.4-0.2,0.9c0,0.4,0.5,1,1.4,1.6c1.1,0.8,2.5,1.5,4.4,2.2
	c2.2,0.8,4.6,1.4,7.4,1.9c3.3,0.6,6.8,0.9,10.6,0.9l-4.4,7.1C211.6,45.4,207.4,44.8,204,43.9z M196.6,54.7c-0.1,0.2-0.1,0.4-0.1,0.8
	v2.1c4,0.7,7.2,2.3,9.8,4.8c2.8,2.7,4.1,6,4.1,10c0,4.4-1.8,8-5.4,10.9c-3.4,2.7-7.4,4.1-12,4.1s-8.6-1.4-12-4.1
	c-3.6-2.9-5.4-6.5-5.4-10.9c0-3.9,1.3-7.1,3.8-9.8c2.4-2.5,5.6-4.1,9.6-4.8v-2.2c0-0.4-0.1-0.6-0.2-0.8c-0.1-0.1-0.3-0.2-0.7-0.2
	h-26.6v-6.9h63.7v6.9h-27.6C197.1,54.5,196.8,54.6,196.6,54.7z"/>
<path d="M284,43.9c0-0.5-0.1-0.9-0.2-1c-0.1-0.1-0.3-0.2-0.6-0.2h-10.5v-7h10.5c0.4,0,0.6,0,0.7-0.2c0.1,0,0.1-0.2,0.1-0.5V15.4h7.9
	v39.5H284V43.9 M265.4,64.5c-1.9,1.8-2.9,4-2.9,6.5c0,2.5,1,4.7,3,6.5c2,1.8,4.4,2.7,7.2,2.7c2.7,0,5-0.9,7-2.7c2-1.8,3-3.9,3-6.5
	c0-2.5-1-4.7-3-6.5c-2-1.8-4.3-2.7-7-2.7C269.8,61.8,267.4,62.7,265.4,64.5z M260.6,82.5c-3.5-3.2-5.2-6.9-5.2-11.2
	c0-4.6,1.7-8.5,5.2-11.7c3.4-3.1,7.5-4.7,12.1-4.7c4.5,0,8.5,1.6,12,4.7c3.5,3.3,5.3,7.2,5.3,11.7c0,4.3-1.8,8-5.4,11.2
	c-3.4,3.1-7.4,4.7-11.9,4.7C268.1,87.2,264.1,85.6,260.6,82.5z M245.1,16.1h20.8v7.3h-20.8V16.1z M261.6,49.9
	c-2.6-1.7-4.6-3.5-6.1-5.5c-2,2.6-4.6,5-7.9,7c-3.3,2.1-6.8,3.6-10.2,4.5l-4.7-7c5.4-0.6,10-2.4,13.7-5.5c3.4-2.8,5.1-5.6,5.1-8.4
	c0-0.3-0.1-0.5-0.2-0.6c-0.1,0-0.3-0.1-0.5-0.1h-13.9v-6.9h36v6.9h-12.4c-0.5,0-0.8,0-0.9,0.1c0,0-0.1,0.2-0.1,0.5
	c0,2.8,1.4,5.3,4.3,7.6c3.1,2.5,7,4,11.8,4.5l-4.8,7C267.4,53,264.4,51.6,261.6,49.9z"/>
<path d="M360.2,38.2c0,0.1-0.1,0.6-0.1,1.3v15h-7.7V15.4h7.7v14.4c0,0.6,0,0.9,0.1,1.1c0.1,0.2,0.5,0.3,1,0.3h9.6v6.9h-9.8
	C360.6,38.1,360.3,38.1,360.2,38.2 M352.7,64.8c-0.1-0.2-0.3-0.2-0.6-0.2h-27.9c-0.4,0-0.7,0.1-0.9,0.2c-0.2,0.2-0.2,0.5-0.2,0.9v12
	c0,0.4,0.1,0.7,0.2,0.9c0.1,0.2,0.4,0.3,0.8,0.3h28c0.1,0,0.3-0.1,0.5-0.4c0.2-0.2,0.3-0.5,0.3-0.8v-12
	C352.9,65.3,352.8,65,352.7,64.8z M321,85.7c-1.8,0-3.1-0.6-4.1-1.8c-0.9-1-1.4-2.4-1.4-4.1V63.1c0-1.7,0.4-3,1.3-3.9
	c0.9-0.9,2.2-1.4,3.8-1.4h34.8c1.5,0,2.7,0.5,3.7,1.5c0.9,0.9,1.4,2.2,1.4,3.7v17.1c0,1.5-0.4,2.8-1.2,3.8c-0.9,1.2-2.2,1.8-3.8,1.8
	L321,85.7L321,85.7z M315,52.1c-1.9,0-3.4-0.6-4.5-2c-1-1.2-1.5-2.7-1.5-4.6V17.4h7.6v26.3c0,0.5,0.1,0.8,0.2,0.9
	c0.2,0.2,0.5,0.3,0.9,0.3h11.1c2.9,0,5.9-0.1,8.8-0.4c2.9-0.2,6-0.5,9.3-1l1.1,6.6c-3,0.5-6.2,1-9.7,1.3c-3.6,0.4-6.8,0.5-9.5,0.5
	L315,52.1L315,52.1z"/>
<path d="M387.5,48.8c-1.1-1-1.6-2.5-1.6-4.5V23.9c0-1.8,0.4-3.1,1.3-4.1c1-1,2.4-1.6,4.1-1.6h40.3v7.2h-37.1c-0.4,0-0.7,0-0.8,0.1
	c-0.1,0.1-0.2,0.4-0.2,0.9v15.8c0,0.4,0.1,0.7,0.2,0.9c0.2,0.2,0.5,0.3,0.9,0.3h37.3v7h-19.2V61c0,0.4,0,0.6,0.2,0.8
	c0.2,0.2,0.4,0.2,0.7,0.2h27.4v7h-63.6v-7h26.8c0.3,0,0.5-0.1,0.6-0.2c0.1-0.2,0.1-0.4,0.1-0.8V50.3h-12.7
	C390,50.3,388.5,49.8,387.5,48.8"/>
<path d="M495,26.7c0-0.6-0.1-1-0.2-1.2c-0.2-0.2-0.4-0.3-0.8-0.3h-36.5v-6.9h40.1c1.5,0,2.7,0.6,3.7,1.7c1,1.1,1.5,2.3,1.5,3.7v28.7
	H495L495,26.7 M449.1,62h14.4c0.3,0,0.5-0.1,0.7-0.2c0.1-0.2,0.2-0.4,0.2-0.8V41.4h7.6V61c0,0.4,0.1,0.6,0.2,0.8
	c0.1,0.1,0.3,0.2,0.7,0.2h7.3c0.3,0,0.5-0.1,0.7-0.2c0.2-0.2,0.2-0.4,0.2-0.8V41.4h7.5V61c0,0.4,0,0.6,0.1,0.8
	c0.2,0.1,0.5,0.2,0.9,0.2h23v7h-63.6L449.1,62L449.1,62z"/>
<path d="M545.2,66.2c-1.9,1.5-2.9,3.5-2.9,6c0,2.4,1,4.4,3,5.9c1.9,1.4,4.4,2.1,7.4,2.1c2.9,0,5.3-0.7,7.1-2.2
	c1.9-1.5,2.9-3.4,2.9-5.8c0-2.4-1-4.4-3-5.9c-1.9-1.4-4.3-2.1-7.2-2.1C549.6,64.2,547.1,64.9,545.2,66.2 M540.7,83.2
	c-3.6-2.9-5.4-6.5-5.4-10.8c0-4.5,1.7-8.2,5.2-11c3.3-2.6,7.3-4,12.2-4c4.7,0,8.8,1.3,12.1,4c3.5,2.8,5.3,6.5,5.3,11
	c0,4.4-1.8,8-5.4,10.8c-3.4,2.7-7.4,4.1-12,4.1C548.1,87.3,544.1,85.9,540.7,83.2z M530,42.8c-0.9-0.8-1.3-2.2-1.3-4.2V21.9
	c0-1.8,0.4-3.2,1.3-4.3c0.9-1.1,2.3-1.7,4.1-1.7H576V23h-38.8c-0.4,0-0.7,0-0.8,0.1c-0.1,0.1-0.2,0.4-0.2,0.8v2c0,0.3,0,0.4,0.2,0.5
	c0.1,0.2,0.4,0.2,0.8,0.2h39v6.9h-39c-0.5,0-0.8,0-0.9,0.2c0,0-0.1,0.3-0.1,0.8v1.4c0,0.4,0,0.7,0.2,0.9c0.1,0.2,0.5,0.3,0.9,0.3
	h39.5v7.1h-20.5v3.7c0,0.4,0,0.6,0.2,0.7c0.1,0.2,0.3,0.2,0.7,0.2h27.6v7h-63.7v-7H548c0.3,0,0.5-0.1,0.6-0.2
	c0.1-0.1,0.2-0.3,0.2-0.7v-3.7h-14.1C532.5,44.1,531,43.7,530,42.8z"/>
<path d="M607,82c-0.9-1.2-1.3-2.7-1.3-4.6V60.1h7.6v15.7c0,0.5,0.1,0.9,0.2,1c0.2,0.2,0.6,0.2,1.2,0.2h37.9v7h-41.1
	C609.5,84,607.9,83.3,607,82 M604.8,28.1c-2.1,1.9-3.1,4.3-3.1,7.1c0,2.7,1.1,5,3.2,6.9c2.1,2,4.6,3,7.7,3c2.9,0,5.4-1,7.6-3
	c2.1-1.9,3.2-4.2,3.2-6.9c0-2.8-1.1-5.1-3.2-7.1c-2.1-1.9-4.7-2.9-7.6-2.9C609.4,25.2,606.8,26.1,604.8,28.1z M643.9,48
	c0-0.5-0.1-0.9-0.2-1c-0.1-0.1-0.3-0.1-0.5-0.1h-13v-6.9h13c0.4,0,0.6,0,0.6-0.2c0.1-0.1,0.2-0.3,0.2-0.5v-5.9c0-0.5-0.1-0.9-0.2-1
	c-0.1-0.1-0.3-0.2-0.5-0.2h-12.7v0.4c0.1,0.6,0.2,1,0.2,1.3c0.1,0.6,0.2,1.1,0.2,1.6c0,4.5-1.9,8.5-5.6,11.8c-3.6,3.3-7.9,5-12.7,5
	c-4.7,0-8.9-1.6-12.6-4.9c-3.7-3.4-5.5-7.4-5.5-11.9c0-4.9,1.8-8.9,5.4-12.3c3.5-3.3,7.7-4.9,12.6-4.9c4,0,7.7,1.2,11.1,3.7
	c3.3,2.5,5.5,5.6,6.5,9.4v-6.1h13c0.3,0,0.5-0.1,0.6-0.2c0.1-0.1,0.2-0.3,0.2-0.6v-8.8h7.6v51h-7.6L643.9,48L643.9,48z"/>
<path d="M707.2,40c-4.2-2.3-7.5-5.4-10-9.1c-2.6,3.6-5.9,6.7-10.1,9.1c-3.9,2.3-8.4,4-13.6,5.2l-4.5-7c6.8-0.6,12.5-2.7,17.3-6.3
	c4.8-3.6,7.3-7.9,7.3-12.7v-4.1h8v4.1c0,4.8,2.1,8.9,6.2,12.3c4.3,3.4,10,5.4,17,5.8l-4.5,7.2C715.4,43.7,711,42.1,707.2,40
	 M700.3,57.7c-0.2,0.2-0.2,0.5-0.2,1v19.4h-8V58.6c0-0.5-0.1-0.8-0.2-0.9c-0.2-0.1-0.5-0.1-1.1-0.1h-25.9v-7.2h63.6v7.2h-26.8
	C700.9,57.6,700.5,57.6,700.3,57.7z"/>
<path d="M787.8,65.1c0-0.5-0.1-0.8-0.2-1c-0.2-0.1-0.4-0.2-0.6-0.2h-16.2v-6.9h16.2c0.3,0,0.5-0.1,0.6-0.2c0.2-0.1,0.2-0.3,0.2-0.5
	V15.5h7.6v54.3h-7.6V65.1 M754.2,24.4c-1.7,1.5-2.5,3.4-2.5,5.7c0,2.2,0.8,4.1,2.6,5.6c1.7,1.5,3.7,2.2,6.1,2.2
	c2.3,0,4.3-0.8,5.9-2.3c1.6-1.5,2.4-3.3,2.4-5.6c0-2.2-0.9-4.1-2.7-5.7c-1.7-1.5-3.6-2.2-5.8-2.2C757.9,22.2,755.8,22.9,754.2,24.4z
	 M748.5,82c-0.9-1.2-1.3-2.7-1.3-4.6V63.2h7.6v12.6c0,0.5,0.2,0.8,0.5,0.9c0.3,0.2,0.9,0.3,1.8,0.3h40v7H753
	C751,84,749.5,83.4,748.5,82z M749.6,40.6c-3.1-2.8-4.7-6.2-4.7-10.4c0-4.3,1.6-7.9,4.7-10.7c3-2.8,6.6-4.1,10.8-4.1
	c4.2,0,7.7,1.4,10.8,4.2c3.1,2.9,4.7,6.5,4.7,10.6c0,4.1-1.6,7.6-4.8,10.4c-3,2.7-6.5,4.1-10.6,4.1
	C756.2,44.7,752.6,43.4,749.6,40.6z M764.2,54.8c-0.2,0.1-0.2,0.4-0.2,1V66h-7.6V55.6c0-0.5-0.1-0.8-0.3-0.9
	c-0.2-0.1-0.6-0.2-1.3-0.2h-15.6v-7.2H784v7.2h-18.5C764.8,54.6,764.4,54.7,764.2,54.8z"/>
<path d="M180.1,99.7l-1.4,1.7c-1.3-1-2.6-1.4-4.3-1.4c-2.6,0-4.5,1.3-5.5,3.9c-0.7,1.5-1,3.3-1,6c0,2.2,0.2,3.4,0.7,4.8
	c1.1,2.8,3.5,4.1,6,4.1c1.7,0,2.9-0.4,4.4-1.4l1.4,1.9c-1.8,1.2-4,1.8-6.3,1.8c-5.5,0-9.2-4.7-9.2-11.5c0-6.7,4-11.6,9.4-11.6
	C176.6,97.9,178.5,98.6,180.1,99.7"/>
<path d="M183.5,97.3l2.6-0.5c0.3,1.1,0.4,2.1,0.4,3.8v3.8c0,0.6,0,1.4-0.1,2.2c0.6-0.6,0.9-0.8,1.6-1.3c1.4-0.9,2.5-1.3,3.8-1.3
	c2,0,3.7,1.1,4.2,2.6c0.2,0.7,0.3,1.2,0.3,2.4v11.7h-2.5v-11.3c0-1.2-0.2-1.9-0.6-2.4c-0.4-0.4-1.1-0.6-1.9-0.6
	c-1.6,0-3.4,1-4.8,2.8v11.6h-2.6v-20.1C183.9,99.2,183.8,98.5,183.5,97.3"/>
<path d="M202,104.5l2.5-0.5v11.7c0,1.6,0.2,2.2,0.9,2.7c0.5,0.4,1.3,0.6,2,0.6c1.6,0,3.3-1.2,4.2-3v-11.6l2.5-0.4v11.6
	c0,1.9,0.1,2.4,0.4,3c0.2,0.4,0.3,0.5,0.7,0.9l-1.6,1.7c-1.1-0.9-1.5-1.5-1.8-2.6c-1.2,1.7-2.9,2.5-5.2,2.5c-2.1,0-3.7-0.9-4.3-2.3
	c-0.3-0.6-0.4-1.5-0.4-2.4L202,104.5"/>
<path d="M219.4,104.7l2.5-0.7c0.4,0.9,0.6,1.6,0.6,2.5c1.7-1.7,3.4-2.5,5.1-2.5c1.8,0,3.3,1,4,2.4c0.3,0.6,0.4,1.2,0.4,1.9v12.4
	h-2.6v-11c0-1.7-0.1-2.2-0.6-2.7c-0.4-0.4-1.1-0.7-1.8-0.7c-1.3,0-3.4,1-4.5,2.3v12.2H220v-12.2C220,106.3,219.9,105.9,219.4,104.7"
	/>
<path d="M243.2,106.2c-2,0-3.1,1-3.1,3.3c0,2.1,1.1,3.2,3.1,3.2c2,0,3-1.1,3-3.3C246.2,107.2,245.3,106.2,243.2,106.2 M250.5,104.2
	l1.6,1.6c-1,0.7-1.8,1-2.8,1c-0.5,0-0.7,0-1.1-0.2c0.6,0.8,1,1.7,1,2.8c0,1.5-0.7,3.1-1.8,4c-0.8,0.7-2.2,1.2-3.3,1.2
	c-0.1,0-0.2,0-0.4,0l-0.4,0.1c-1.8,0.7-2.6,1.2-2.6,1.8c0,0.5,0.5,0.8,1.3,0.8h2.6c1.9,0,3,0.2,3.9,0.9c1.3,0.9,1.8,2,1.8,3.4
	c0,2-0.9,3.6-2.5,4.4c-1.1,0.6-2.4,0.8-4,0.8c-3,0-4.9-0.6-6-1.6c-0.8-0.7-1.1-1.6-1.1-2.5c0-0.6,0.1-1.1,0.3-1.7l2.7-0.2l-0.1,0.3
	c-0.2,0.4-0.3,0.9-0.3,1.2c0,0.8,0.4,1.5,1,1.9c0.8,0.5,2,0.8,3.3,0.8c1.8,0,2.9-0.4,3.5-1.2c0.3-0.4,0.5-0.9,0.5-1.6
	c0-0.9-0.3-1.6-0.9-2c-0.6-0.4-1.6-0.6-3.2-0.6c-0.6,0-2,0.1-2.5,0.1c-1.9,0-3.1-0.9-3.1-2.4c0-1.3,0.8-2.1,2.8-2.7l0.2-0.1
	c-2.2-0.7-3.7-2.5-3.7-4.7c0-3.3,2.5-5.5,6-5.5c0.8,0,1.7,0.1,2.4,0.4l1.1,0.4c0.4,0.1,0.9,0.2,1.5,0.2
	C249.1,105,249.7,104.8,250.5,104.2z"/>
<path d="M265.7,105.7l-1.4,1.8c-1.3-1-1.9-1.3-3.1-1.3c-1.3,0-2.5,0.7-3.1,1.8c-0.6,1.1-0.9,3-0.9,5.3c0,3.7,1.4,5.7,4,5.7
	c1.3,0,2.6-0.6,3.5-1.8l1.4,1.6c-1.5,1.5-2.9,2.2-5,2.2c-2.3,0-4.1-0.8-5.2-2.5c-1.1-1.6-1.6-3.4-1.6-5.8c0-3.6,1-5.6,2.5-7
	c1.3-1.3,2.7-1.9,4.4-1.9C263.3,103.9,264.5,104.7,265.7,105.7"/>
<path d="M269.1,97.3l2.6-0.5c0.3,1.1,0.4,2.1,0.4,3.8v3.8c0,0.6,0,1.4-0.1,2.2c0.6-0.6,0.9-0.8,1.6-1.3c1.4-0.9,2.5-1.3,3.8-1.3
	c2,0,3.7,1.1,4.2,2.6c0.2,0.7,0.3,1.2,0.3,2.4v11.7h-2.5v-11.3c0-1.2-0.2-1.9-0.6-2.4c-0.4-0.4-1.1-0.6-1.9-0.6
	c-1.6,0-3.3,1-4.8,2.8v11.6h-2.6v-20.1C269.6,99.2,269.5,98.5,269.1,97.3"/>
<path d="M289.5,111h7.5c0-1.8-0.3-2.9-0.8-3.6c-0.6-0.9-1.7-1.4-3-1.4C290.9,106,289.6,107.6,289.5,111 M298.3,117.4l1,1.6
	c-1.4,1.3-3.4,2-5.5,2c-4.5,0-7.2-3.3-7.2-8.7c0-2.8,0.6-4.6,2-6.2c1.3-1.5,2.9-2.3,4.9-2.3c1.8,0,3.4,0.6,4.4,1.8
	c1.4,1.4,1.8,3,1.9,6.9v0.4h-10.2v0.4c0,1.5,0.2,2.7,0.8,3.6c0.9,1.4,2.4,2,4.1,2C295.9,118.9,297.1,118.4,298.3,117.4z"/>
<path d="M310.6,106.1c-1.5,0-2.8,0.7-3.4,1.8c-0.5,1-0.8,2.3-0.8,4.3c0,2.3,0.4,4.3,1,5.3c0.6,1,1.9,1.6,3.3,1.6
	c1.7,0,3-0.9,3.5-2.5c0.4-1,0.5-1.9,0.5-3.5c0-2.3-0.2-3.8-0.8-4.9C313.4,106.8,311.9,106.1,310.6,106.1 M310.6,104
	c2.7,0,4.5,1.2,5.6,2.9c1,1.5,1.5,3.4,1.5,6.1c0,3.2-0.8,5.2-2.6,6.8c-1.3,1.1-2.6,1.6-4.5,1.6c-4.4,0-7-3.3-7-8.7
	C303.7,107.3,306.3,104,310.6,104z"/>
<path d="M322.3,104.7l2.5-0.7c0.4,0.9,0.6,1.6,0.6,2.5c1.7-1.7,3.4-2.5,5.1-2.5c1.8,0,3.4,1,4,2.4c0.3,0.6,0.4,1.2,0.4,1.9v12.4
	h-2.6v-11c0-1.7-0.1-2.2-0.6-2.7c-0.4-0.4-1-0.7-1.8-0.7c-1.3,0-3.4,1-4.5,2.3v12.2h-2.5v-12.2C322.9,106.3,322.9,105.9,322.3,104.7
	"/>
<path d="M346.1,106.2c-2,0-3.1,1-3.1,3.3c0,2.1,1.1,3.2,3.1,3.2c2,0,3-1.1,3-3.3C349.1,107.2,348.3,106.2,346.1,106.2 M353.4,104.2
	l1.6,1.6c-1,0.7-1.8,1-2.8,1c-0.6,0-0.7,0-1.1-0.2c0.7,0.8,1,1.7,1,2.8c0,1.5-0.7,3.1-1.8,4c-0.8,0.7-2.2,1.2-3.4,1.2
	c-0.1,0-0.2,0-0.4,0l-0.4,0.1c-1.8,0.7-2.6,1.2-2.6,1.8c0,0.5,0.5,0.8,1.3,0.8h2.6c1.9,0,3,0.2,3.9,0.9c1.3,0.9,1.8,2,1.8,3.4
	c0,2-0.9,3.6-2.5,4.4c-1.1,0.6-2.4,0.8-4,0.8c-3,0-4.9-0.6-6-1.6c-0.8-0.7-1.1-1.6-1.1-2.5c0-0.6,0.1-1.1,0.3-1.7l2.7-0.2l-0.1,0.3
	c-0.2,0.4-0.3,0.9-0.3,1.2c0,0.8,0.4,1.5,1,1.9c0.8,0.5,2,0.8,3.3,0.8c1.8,0,2.9-0.4,3.5-1.2c0.3-0.4,0.5-0.9,0.5-1.6
	c0-0.9-0.3-1.6-0.9-2c-0.6-0.4-1.6-0.6-3.2-0.6c-0.6,0-2,0.1-2.5,0.1c-1.9,0-3.1-0.9-3.1-2.4c0-1.3,0.8-2.1,2.8-2.7l0.2-0.1
	c-2.2-0.7-3.7-2.5-3.7-4.7c0-3.3,2.5-5.5,6-5.5c0.8,0,1.7,0.1,2.4,0.4l1.1,0.4c0.4,0.1,0.9,0.2,1.5,0.2
	C352,105,352.6,104.8,353.4,104.2z"/>
<path d="M357.6,104.7l2.5-0.7c0.4,0.9,0.6,1.6,0.6,2.5c1.7-1.7,3.4-2.5,5.1-2.5c1.8,0,3.4,1,4,2.4c0.3,0.6,0.4,1.2,0.4,1.9v12.4
	h-2.6v-11c0-1.7-0.1-2.2-0.6-2.7c-0.4-0.4-1.1-0.7-1.8-0.7c-1.3,0-3.4,1-4.5,2.3v12.2h-2.5v-12.2
	C358.3,106.3,358.2,105.9,357.6,104.7"/>
<path d="M384.6,112.4c-0.6,0-0.8-0.1-1.3-0.1c-2.5,0-3.9,0.5-4.7,1.3c-0.6,0.7-0.9,1.5-0.9,2.6c0,1.9,1,3,2.8,3c1.7,0,3.2-1,4-2.6
	L384.6,112.4 M375.4,106.1c2.2-1.4,4.5-2.2,6.9-2.2c2.3,0,3.8,0.9,4.5,2.5c0.3,0.7,0.4,1.3,0.4,2.8c0,0.4,0,0.6,0,0.8l-0.1,5.4
	c0,0.2,0,0.5,0,0.8c0,2,0.3,2.7,1.3,3.2l-1.3,1.8c-1.1-0.4-1.9-1.2-2.2-2.4c-1.6,1.6-2.9,2.2-4.7,2.2c-2.1,0-3.1-0.5-3.9-1.3
	c-0.9-0.9-1.3-2.3-1.3-3.4c0-3.7,3.2-5.9,8.6-5.9c0.4,0,0.6,0,1.1,0v-1.1c0-1.4-0.1-2-0.5-2.5c-0.5-0.6-1.2-0.9-2.2-0.9
	c-1,0-1.9,0.2-3.1,0.7c-1,0.4-1.3,0.6-2.1,1.2L375.4,106.1z"/>
<path d="M392.4,104.6l2.5-0.6c0.3,0.6,0.6,1.6,0.6,2.3v0.1c0.8-0.8,1.1-1,2-1.6c1-0.6,1.9-0.9,2.8-0.9c1.3,0,2.5,0.7,3.2,1.6
	c0.2,0.3,0.4,0.5,0.5,1.1c1.6-1.7,3.6-2.7,5.2-2.7c2.4,0,4.1,1.8,4.1,4.4v12.3h-2.6v-12.1c0-1.6-0.7-2.4-2.1-2.4
	c-0.8,0-1.6,0.3-2.4,0.9c-0.5,0.4-1,0.8-1.6,1.4l-0.3,0.3v11.9h-2.6v-11.6c0-1.4,0-1.6-0.5-2.1c-0.4-0.5-0.9-0.6-1.7-0.6
	c-1.2,0-2.5,0.6-4.2,2.2v12.2H393v-12.2C392.9,106.3,392.9,105.9,392.4,104.6"/>
<path d="M429.2,107.9c-0.8-1.1-2-1.7-4-1.7c-1.3,0-2.4,0.6-3,1.7c-0.8,1.2-1,2.4-1,4.7c0,2.8,0.3,4.1,1.3,5.1c0.7,0.8,1.4,1,2.6,1
	c1.4,0,2.1-0.3,3.1-1c0.6-0.4,0.9-0.9,1-1.2L429.2,107.9 M431.8,97.2v18.2c0,1.7,0.1,3.2,0.2,4c0.1,0.5,0.1,0.8,0.3,1.3h-2.6
	c-0.2-0.6-0.3-0.9-0.4-1.7c-0.5,0.5-0.7,0.8-1.1,1c-0.8,0.6-1.9,0.9-3.2,0.9c-4.2,0-6.7-3-6.7-8.3c0-3.5,1.1-6,3.4-7.6
	c1.1-0.7,2-1,3.1-1c1.8,0,3.4,0.8,4.4,2.1c0,0,0-1.3,0-2.5v-6.9L431.8,97.2z"/>
<path d="M443.8,106.1c-1.4,0-2.8,0.7-3.3,1.8c-0.5,1-0.8,2.3-0.8,4.3c0,2.3,0.4,4.3,1,5.3c0.6,1,1.9,1.6,3.3,1.6
	c1.7,0,3-0.9,3.5-2.5c0.4-1,0.5-1.9,0.5-3.5c0-2.3-0.2-3.8-0.7-4.9C446.5,106.8,445.1,106.1,443.8,106.1 M443.8,104
	c2.7,0,4.5,1.2,5.6,2.9c1,1.5,1.5,3.4,1.5,6.1c0,3.2-0.8,5.2-2.5,6.8c-1.3,1.1-2.6,1.6-4.5,1.6c-4.4,0-7-3.3-7-8.7
	C436.8,107.3,439.5,104,443.8,104z"/>
<polyline points="464.7,98.2 479.6,98.2 479.5,100.5 473.4,100.5 473.4,120.7 470.8,120.7 470.8,100.5 464.7,100.5 464.7,98.2 "/>
<path d="M480.7,104.6l2.5-0.7c0.4,0.9,0.6,1.3,0.6,2.4v0.2c1.2-1.7,2.9-2.7,4.6-2.7c0.4,0,0.9,0.2,0.9,0.2l-1,2.8
	c-0.3-0.1-0.4-0.1-0.7-0.1c-1,0-2,0.4-2.7,1.2c-0.8,0.8-1,1.2-1,2.6v10.2h-2.5v-12.4C481.2,106.4,481.1,105.7,480.7,104.6"/>
<path d="M500.4,112.4c-0.6,0-0.8-0.1-1.3-0.1c-2.5,0-3.9,0.5-4.7,1.3c-0.6,0.7-0.9,1.5-0.9,2.6c0,1.9,1,3,2.8,3c1.7,0,3.2-1,4-2.6
	L500.4,112.4 M491.3,106.1c2.2-1.4,4.5-2.2,6.9-2.2c2.3,0,3.8,0.9,4.5,2.5c0.3,0.7,0.4,1.3,0.4,2.8c0,0.4,0,0.6,0,0.8l-0.1,5.4
	c0,0.2,0,0.5,0,0.8c0,2,0.3,2.7,1.3,3.2l-1.3,1.8c-1.1-0.4-1.9-1.2-2.2-2.4c-1.6,1.6-2.8,2.2-4.7,2.2c-2.1,0-3.1-0.5-3.9-1.3
	c-0.9-0.9-1.3-2.3-1.3-3.4c0-3.7,3.2-5.9,8.7-5.9c0.4,0,0.6,0,1.2,0v-1.1c0-1.4-0.1-2-0.5-2.5c-0.5-0.6-1.2-0.9-2.2-0.9
	c-0.9,0-1.9,0.2-3.1,0.7c-1,0.4-1.3,0.6-2.1,1.2L491.3,106.1z"/>
<path d="M516.7,99.7c-0.6-0.4-1.5-0.8-2.4-0.8c-1.5,0-2.2,1-2.2,2.9v2.7h4.5l-0.8,1.9h-3.7v14.3h-2.7v-14.3h-1.6v-1.9h1.6v-2.7
	c0-2.4,1.1-3.5,1.8-4c0.8-0.6,1.7-0.9,2.9-0.9c1.4,0,2.7,0.3,3.6,1L516.7,99.7"/>
<path d="M525.9,99.7c-0.6-0.4-1.5-0.8-2.4-0.8c-1.4,0-2.2,1-2.2,2.9v2.7h4.5l-0.8,1.9h-3.7v14.3h-2.7v-14.3H517v-1.9h1.6v-2.7
	c0-2.4,1.1-3.5,1.8-4c0.8-0.6,1.7-0.9,2.9-0.9c1.4,0,2.7,0.3,3.6,1L525.9,99.7"/>
<path d="M527.8,104.4l2.7-0.4v16.7h-2.7V104.4 M529.2,97.3c1.1,0,2,0.9,2,2c0,1.1-0.9,2-2,2s-2-0.9-2-2
	C527.2,98.2,528.1,97.3,529.2,97.3z"/>
<path d="M546.8,105.7l-1.4,1.8c-1.3-1-1.9-1.3-3.1-1.3c-1.3,0-2.5,0.7-3.1,1.8c-0.6,1.1-0.9,3-0.9,5.3c0,3.7,1.4,5.7,4,5.7
	c1.3,0,2.6-0.6,3.5-1.8l1.4,1.6c-1.5,1.5-3,2.2-5,2.2c-2.3,0-4.1-0.8-5.2-2.5c-1.1-1.6-1.6-3.4-1.6-5.8c0-3.6,1-5.6,2.5-7
	c1.3-1.3,2.7-1.9,4.4-1.9C544.4,103.9,545.7,104.7,546.8,105.7"/>
<polyline points="559.6,98.2 574.5,98.2 574.3,100.5 568.2,100.5 568.2,120.7 565.6,120.7 565.6,100.5 559.6,100.5 559.6,98.2 "/>
<path d="M575.5,104.6l2.6-0.7c0.4,0.9,0.6,1.3,0.6,2.4v0.2c1.2-1.7,2.9-2.7,4.6-2.7c0.4,0,0.9,0.2,0.9,0.2l-1,2.8
	c-0.3-0.1-0.4-0.1-0.7-0.1c-1,0-2,0.4-2.7,1.2c-0.8,0.8-1,1.2-1,2.6v10.2h-2.5v-12.4C576.1,106.4,576,105.7,575.5,104.6"/>
<path d="M595.3,112.4c-0.5,0-0.8-0.1-1.3-0.1c-2.5,0-3.9,0.5-4.7,1.3c-0.6,0.7-0.9,1.5-0.9,2.6c0,1.9,1,3,2.8,3c1.7,0,3.2-1,4-2.6
	L595.3,112.4 M586.2,106.1c2.2-1.4,4.5-2.2,6.8-2.2c2.3,0,3.8,0.9,4.5,2.5c0.3,0.7,0.4,1.3,0.4,2.8c0,0.4,0,0.6,0,0.8l-0.1,5.4
	c0,0.2,0,0.5,0,0.8c0,2,0.3,2.7,1.3,3.2l-1.3,1.8c-1.1-0.4-2-1.2-2.2-2.4c-1.6,1.6-2.8,2.2-4.7,2.2c-2.1,0-3.1-0.5-3.9-1.3
	c-0.9-0.9-1.3-2.3-1.3-3.4c0-3.7,3.2-5.9,8.7-5.9c0.4,0,0.6,0,1.2,0v-1.1c0-1.4-0.1-2-0.5-2.5c-0.5-0.6-1.2-0.9-2.2-0.9
	c-1,0-1.9,0.2-3.2,0.7c-1,0.4-1.3,0.6-2.1,1.2L586.2,106.1z"/>
<path d="M603.6,104.4l2.7-0.4v16.7h-2.7V104.4 M605,97.3c1.1,0,2,0.9,2,2c0,1.1-0.9,2-2,2c-1.1,0-2-0.9-2-2
	C603,98.2,603.9,97.3,605,97.3z"/>
<path d="M611.7,104.7l2.5-0.7c0.4,0.9,0.6,1.6,0.6,2.5c1.7-1.7,3.4-2.5,5.2-2.5c1.8,0,3.3,1,4,2.4c0.3,0.6,0.4,1.2,0.4,1.9v12.4
	h-2.6v-11c0-1.7-0.1-2.2-0.6-2.7c-0.4-0.4-1-0.7-1.8-0.7c-1.3,0-3.3,1-4.5,2.3v12.2h-2.5v-12.2C612.3,106.3,612.2,105.9,611.7,104.7
	"/>
<path d="M630.1,120.7h2.7V104l-2.7,0.4V120.7 M629.5,99.4c0,1.1,0.9,2,2,2s2-0.9,2-2c0-1.1-0.9-2-2-2
	C630.4,97.3,629.5,98.2,629.5,99.4z"/>
<path d="M638.2,104.7l2.5-0.7c0.4,0.9,0.6,1.6,0.6,2.5c1.7-1.7,3.4-2.5,5.1-2.5c1.8,0,3.3,1,4,2.4c0.3,0.6,0.4,1.2,0.4,1.9v12.4
	h-2.6v-11c0-1.7-0.1-2.2-0.6-2.7c-0.4-0.4-1-0.7-1.8-0.7c-1.3,0-3.3,1-4.5,2.3v12.2h-2.5v-12.2C638.8,106.3,638.8,105.9,638.2,104.7
	"/>
<path d="M662,106.2c-2,0-3.1,1-3.1,3.3c0,2.1,1.1,3.2,3.2,3.2c2,0,3-1.1,3-3.3C665,107.2,664.2,106.2,662,106.2 M669.3,104.2
	l1.6,1.6c-1,0.7-1.8,1-2.8,1c-0.6,0-0.7,0-1.1-0.2c0.7,0.8,1,1.7,1,2.8c0,1.5-0.7,3.1-1.8,4c-0.8,0.7-2.2,1.2-3.3,1.2
	c-0.1,0-0.2,0-0.3,0l-0.4,0.1c-1.8,0.7-2.6,1.2-2.6,1.8c0,0.5,0.5,0.8,1.3,0.8h2.6c1.9,0,3,0.2,3.9,0.9c1.3,0.9,1.8,2,1.8,3.4
	c0,2-0.9,3.6-2.5,4.4c-1.2,0.6-2.4,0.8-4,0.8c-3,0-4.9-0.6-6-1.6c-0.8-0.7-1.1-1.6-1.1-2.5c0-0.6,0.1-1.1,0.3-1.7l2.7-0.2l-0.1,0.3
	c-0.2,0.4-0.3,0.9-0.3,1.2c0,0.8,0.4,1.5,1,1.9c0.8,0.5,2,0.8,3.3,0.8c1.8,0,2.9-0.4,3.5-1.2c0.3-0.4,0.5-0.9,0.5-1.6
	c0-0.9-0.3-1.6-0.9-2c-0.6-0.4-1.6-0.6-3.2-0.6c-0.7,0-2,0.1-2.5,0.1c-1.9,0-3.1-0.9-3.1-2.4c0-1.3,0.8-2.1,2.8-2.7l0.2-0.1
	c-2.2-0.7-3.7-2.5-3.7-4.7c0-3.3,2.5-5.5,6-5.5c0.8,0,1.7,0.1,2.3,0.4l1.1,0.4c0.4,0.1,0.9,0.2,1.5,0.2
	C667.9,105,668.5,104.8,669.3,104.2z"/>
<rect x="685.7" y="98.2" width="2.6" height="22.5"/>
<path d="M693.7,104.7l2.5-0.7c0.4,0.9,0.6,1.6,0.6,2.5c1.7-1.7,3.4-2.5,5.2-2.5c1.8,0,3.3,1,4,2.4c0.3,0.6,0.4,1.2,0.4,1.9v12.4
	h-2.6v-11c0-1.7-0.1-2.2-0.6-2.7c-0.4-0.4-1-0.7-1.8-0.7c-1.3,0-3.3,1-4.5,2.3v12.2h-2.5v-12.2C694.3,106.3,694.2,105.9,693.7,104.7
	"/>
<path d="M721.8,105l-1,1.9c-1.5-0.7-2.7-1.2-4.1-1.2c-1.9,0-3.1,1.1-3.1,2.7c0,0.6,0.2,1.1,0.5,1.4c0.4,0.5,0.9,0.7,1.9,0.9l2.2,0.5
	c3,0.6,4.3,2.1,4.3,4.5c0,3.2-2.5,5.4-6.2,5.4c-2.1,0-4.3-0.6-6-1.6l1-1.9c1.7,1,3.4,1.5,5.2,1.5c2,0,3.3-1.1,3.3-2.8
	c0-1.5-0.8-2.3-2.7-2.7l-2-0.4c-1.5-0.3-2.3-0.8-3.1-1.6c-0.7-0.8-1-1.8-1-2.9c0-3,2.4-5,5.8-5C718.5,103.7,720.4,104.2,721.8,105"
	/>
<path d="M734.2,104.3l-0.8,2h-3.4v10.5c0,1.8,0.5,2.4,2.1,2.4c0.7,0,1.2-0.1,1.6-0.3l0.4,1.6c-0.8,0.4-1.7,0.6-2.9,0.6
	c-0.8,0-1.5-0.2-2.1-0.5c-1.1-0.6-1.6-1.6-1.6-3.2v-11.2h-2.1v-2h2.1v-0.2c0-0.8,0.1-1.7,0.2-3.4l0-0.4l2.7-0.6c0,0-0.3,2.5-0.3,4.6
	L734.2,104.3"/>
<path d="M738.1,104.4l2.7-0.4v16.7h-2.7V104.4 M739.5,97.3c1.1,0,2,0.9,2,2c0,1.1-0.9,2-2,2s-2-0.9-2-2
	C737.5,98.2,738.3,97.3,739.5,97.3z"/>
<path d="M753.7,104.3l-0.8,2h-3.4v10.5c0,1.8,0.5,2.4,2.1,2.4c0.7,0,1.2-0.1,1.6-0.3l0.4,1.6c-0.8,0.4-1.7,0.6-2.9,0.6
	c-0.9,0-1.5-0.2-2.1-0.5c-1.1-0.6-1.6-1.6-1.6-3.2v-11.2h-2.1v-2h2.1v-0.2c0-0.8,0-1.7,0.2-3.4l0-0.4l2.7-0.6c0,0-0.3,2.5-0.3,4.6
	L753.7,104.3"/>
<path d="M757.7,104.5l2.5-0.5v11.7c0,1.6,0.2,2.2,1,2.7c0.5,0.4,1.3,0.6,2,0.6c1.6,0,3.3-1.2,4.2-3v-11.6l2.5-0.4v11.6
	c0,1.9,0.1,2.4,0.4,3c0.2,0.4,0.3,0.5,0.7,0.9l-1.7,1.7c-1.1-0.9-1.5-1.5-1.8-2.6c-1.2,1.7-2.9,2.5-5.2,2.5c-2.1,0-3.7-0.9-4.3-2.3
	c-0.3-0.6-0.4-1.5-0.4-2.4L757.7,104.5"/>
<path d="M782.6,104.3l-0.8,2h-3.5v10.5c0,1.8,0.5,2.4,2.1,2.4c0.7,0,1.2-0.1,1.6-0.3l0.4,1.6c-0.8,0.4-1.7,0.6-2.9,0.6
	c-0.8,0-1.5-0.2-2.1-0.5c-1.1-0.6-1.6-1.6-1.6-3.2v-11.2h-2.1v-2h2.1v-0.2c0-0.8,0.1-1.7,0.2-3.4l0-0.4l2.7-0.6c0,0-0.3,2.5-0.3,4.6
	L782.6,104.3"/>
<path d="M788.4,111h7.5c0-1.8-0.3-2.9-0.8-3.6c-0.6-0.9-1.7-1.4-2.9-1.4C789.8,106,788.5,107.6,788.4,111 M797.2,117.4l1,1.6
	c-1.4,1.3-3.4,2-5.5,2c-4.5,0-7.2-3.3-7.2-8.7c0-2.8,0.5-4.6,2-6.2c1.3-1.5,2.9-2.3,4.9-2.3c1.8,0,3.3,0.6,4.4,1.8
	c1.4,1.4,1.8,3,1.9,6.9v0.4h-10.2v0.4c0,1.5,0.2,2.7,0.8,3.6c0.9,1.4,2.4,2,4.1,2C794.8,118.9,796,118.4,797.2,117.4z"/>
</svg>
